<svg width="20" height="20" viewBox="0 0 20 20" fill="none" xmlns="http://www.w3.org/2000/svg">
<path d="M19.375 9.6875C19.375 15.0391 15 19.375 9.6875 19.375C4.33594 19.375 0 15.0391 0 9.6875C0 4.375 4.33594 0 9.6875 0C15 0 19.375 4.375 19.375 9.6875ZM8.55469 14.8438L15.7422 7.65625C15.9766 7.42188 15.9766 6.99219 15.7422 6.75781L14.8438 5.89844C14.6094 5.625 14.2188 5.625 13.9844 5.89844L8.125 11.7578L5.35156 9.02344C5.11719 8.75 4.72656 8.75 4.49219 9.02344L3.59375 9.88281C3.35938 10.1172 3.35938 10.5469 3.59375 10.7812L7.65625 14.8438C7.89062 15.0781 8.32031 15.0781 8.55469 14.8438Z" fill="#F07F0E"/>
</svg>
