<svg width="16" height="19" viewBox="0 0 16 19" fill="none" xmlns="http://www.w3.org/2000/svg">
<path d="M2.66659 15.3332C2.29992 15.3332 1.98592 15.2025 1.72459 14.9412C1.46325 14.6798 1.33281 14.3661 1.33325 13.9998V5.99984C1.33325 5.63317 1.46392 5.31917 1.72525 5.05784C1.98659 4.7965 2.30036 4.66606 2.66659 4.66651H13.3333C13.6999 4.66651 14.0139 4.79717 14.2753 5.0585C14.5366 5.31984 14.667 5.63362 14.6666 5.99984V13.9998C14.6666 14.3665 14.5359 14.6805 14.2746 14.9418C14.0133 15.2032 13.6995 15.3336 13.3333 15.3332H2.66659ZM7.99992 10.5498C8.05548 10.5498 8.11392 10.5414 8.17525 10.5245C8.23659 10.5076 8.29481 10.4827 8.34992 10.4498L13.0666 7.49984C13.1555 7.44428 13.2221 7.37473 13.2666 7.29117C13.311 7.20762 13.3333 7.11606 13.3333 7.01651C13.3333 6.79428 13.2388 6.62762 13.0499 6.51651C12.861 6.40539 12.6666 6.41095 12.4666 6.53317L7.99992 9.33317L3.53325 6.53317C3.33325 6.41095 3.13881 6.40828 2.94992 6.52517C2.76103 6.64206 2.66659 6.80584 2.66659 7.01651C2.66659 7.12762 2.68881 7.22495 2.73325 7.3085C2.7777 7.39206 2.84436 7.45584 2.93325 7.49984L7.64992 10.4498C7.70548 10.4832 7.76392 10.5083 7.82525 10.5252C7.88659 10.5421 7.94481 10.5503 7.99992 10.5498Z" fill="white"/>
</svg>
