<svg width="18" height="18" viewBox="0 0 18 18" fill="none" xmlns="http://www.w3.org/2000/svg">
<path d="M16.8772 9H12.8819C12.395 9 11.9632 9.27974 11.8139 9.69345C11.4181 10.7878 10.2868 11.5224 9 11.5224C7.71278 11.5224 6.58185 10.7878 6.18629 9.69345C6.03659 9.27974 5.60524 9 5.11793 9H1.1228C0.502683 9 0 9.44791 0 10.0015V15.7132C0 16.2658 0.502683 16.7143 1.1228 16.7143H16.8774C17.498 16.7143 18 16.2658 18 15.7132V10.0015C17.9998 9.44791 17.4975 9 16.8772 9Z" fill="white"/>
<path d="M6.65709 5.45559H7.75615V8.74615C7.75615 8.88686 7.85808 9.00001 7.98347 9.00001H10.0182C10.1441 9.00001 10.2455 8.88686 10.2455 8.74615V5.45559H11.3454C11.4303 5.45559 11.5083 5.40218 11.5471 5.31852C11.5663 5.2774 11.575 5.23076 11.572 5.18413C11.569 5.1375 11.5545 5.09285 11.5303 5.05547L9.17834 1.39159C9.15672 1.35855 9.12876 1.33179 9.09668 1.31342C9.0646 1.29505 9.02927 1.28557 8.99349 1.28572C8.91997 1.28572 8.85109 1.32535 8.80814 1.39255L6.47141 5.05566C6.44745 5.0932 6.43317 5.13784 6.43025 5.18441C6.42732 5.23098 6.43587 5.27755 6.45489 5.31871C6.49371 5.40313 6.57218 5.45559 6.65709 5.45559Z" fill="white"/>
</svg>
