<svg width="20" height="20" viewBox="0 0 20 20" fill="none" xmlns="http://www.w3.org/2000/svg">
<path fill-rule="evenodd" clip-rule="evenodd" d="M9.99992 19.1667C4.93731 19.1667 0.833252 15.0626 0.833252 10C0.833252 4.93739 4.93731 0.833336 9.99992 0.833336C15.0625 0.833336 19.1666 4.93739 19.1666 10C19.1666 15.0626 15.0625 19.1667 9.99992 19.1667ZM9.99992 17.5C14.1421 17.5 17.4999 14.1421 17.4999 10C17.4999 5.85787 14.1421 2.5 9.99992 2.5C5.85778 2.5 2.49992 5.85787 2.49992 10C2.49992 14.1421 5.85778 17.5 9.99992 17.5ZM6.318 14.9488L7.02118 10.849L4.04245 7.9454L8.15896 7.34724L9.99992 3.61705L11.8409 7.34724L15.9574 7.9454L12.9787 10.849L13.6818 14.9488L9.99992 13.0131L6.318 14.9488ZM9.99992 11.1302L11.4683 11.9021L11.1879 10.2671L12.3758 9.10914L10.7341 8.87058L9.99992 7.38297L9.26574 8.87058L7.62405 9.10914L8.81199 10.2671L8.53155 11.9021L9.99992 11.1302Z" fill="#22282B"/>
</svg>
