<svg width="24" height="24" viewBox="0 0 24 24" fill="none" xmlns="http://www.w3.org/2000/svg">
<path fill-rule="evenodd" clip-rule="evenodd" d="M4.8 12.9H9.3C10.2941 12.9 11.1 13.7059 11.1 14.7V19.2C11.1 20.1941 10.2941 21 9.3 21H4.8C3.80589 21 3 20.1941 3 19.2V14.7C3 13.7059 3.80589 12.9 4.8 12.9ZM4.8 14.7V19.2H9.3V14.7H4.8ZM4.8 3H9.3C10.2941 3 11.1 3.80589 11.1 4.8V9.3C11.1 10.2941 10.2941 11.1 9.3 11.1H4.8C3.80589 11.1 3 10.2941 3 9.3V4.8C3 3.80589 3.80589 3 4.8 3ZM4.8 4.8V9.3H9.3V4.8H4.8ZM14.7 3H19.2C20.1941 3 21 3.80589 21 4.8V9.3C21 10.2941 20.1941 11.1 19.2 11.1H14.7C13.7059 11.1 12.9 10.2941 12.9 9.3V4.8C12.9 3.80589 13.7059 3 14.7 3ZM14.7 4.8V9.3H19.2V4.8H14.7Z" fill="white"/>
<path fill-rule="evenodd" clip-rule="evenodd" d="M14.7 12.9H19.2C20.1941 12.9 21 13.7059 21 14.7V19.2C21 20.1941 20.1941 21 19.2 21H14.7C13.7059 21 12.9 20.1941 12.9 19.2V14.7C12.9 13.7059 13.7059 12.9 14.7 12.9ZM14.7 14.7V19.2H19.2V14.7H14.7ZM14.7 3H19.2C20.1941 3 21 3.80589 21 4.8V9.3C21 10.2941 20.1941 11.1 19.2 11.1H14.7C13.7059 11.1 12.9 10.2941 12.9 9.3V4.8C12.9 3.80589 13.7059 3 14.7 3ZM14.7 4.8V9.3H19.2V4.8H14.7Z" fill="white"/>
</svg>
