<svg width="16" height="16" viewBox="0 0 16 16" fill="none" xmlns="http://www.w3.org/2000/svg">
<path d="M2.66659 13.3333C2.29992 13.3333 1.98592 13.2027 1.72459 12.9413C1.46325 12.68 1.33281 12.3662 1.33325 12V4C1.33325 3.63333 1.46392 3.31933 1.72525 3.058C1.98659 2.79667 2.30036 2.66622 2.66659 2.66667H13.3333C13.6999 2.66667 14.0139 2.79733 14.2753 3.05867C14.5366 3.32 14.667 3.63378 14.6666 4V12C14.6666 12.3667 14.5359 12.6807 14.2746 12.942C14.0133 13.2033 13.6995 13.3338 13.3333 13.3333H2.66659ZM7.99992 8.55C8.05548 8.55 8.11392 8.54156 8.17525 8.52467C8.23659 8.50778 8.29481 8.48289 8.34992 8.45L13.0666 5.5C13.1555 5.44444 13.2221 5.37489 13.2666 5.29133C13.311 5.20778 13.3333 5.11622 13.3333 5.01667C13.3333 4.79444 13.2388 4.62778 13.0499 4.51667C12.861 4.40556 12.6666 4.41111 12.4666 4.53333L7.99992 7.33333L3.53325 4.53333C3.33325 4.41111 3.13881 4.40844 2.94992 4.52533C2.76103 4.64222 2.66659 4.806 2.66659 5.01667C2.66659 5.12778 2.68881 5.22511 2.73325 5.30867C2.7777 5.39222 2.84436 5.456 2.93325 5.5L7.64992 8.45C7.70548 8.48333 7.76392 8.50844 7.82525 8.52533C7.88659 8.54222 7.94481 8.55044 7.99992 8.55Z" fill="#01761B"/>
</svg>
