<svg width="20" height="20" viewBox="0 0 20 20" fill="none" xmlns="http://www.w3.org/2000/svg">
<g clip-path="url(#clip0_74_2962)">
<path fill-rule="evenodd" clip-rule="evenodd" d="M9.99992 19.1667C4.93731 19.1667 0.833252 15.0626 0.833252 10C0.833252 4.93739 4.93731 0.833336 9.99992 0.833336C15.0625 0.833336 19.1666 4.93739 19.1666 10C19.1666 15.0626 15.0625 19.1667 9.99992 19.1667ZM9.99992 17.5C14.1421 17.5 17.4999 14.1421 17.4999 10C17.4999 5.85787 14.1421 2.5 9.99992 2.5C5.85778 2.5 2.49992 5.85787 2.49992 10C2.49992 14.1421 5.85778 17.5 9.99992 17.5ZM13.3333 15C11.9525 15 10.8333 13.8807 10.8333 12.5C10.8333 11.1193 11.9525 10 13.3333 10C14.714 10 15.8333 11.1193 15.8333 12.5C15.8333 13.8807 14.714 15 13.3333 15ZM13.3333 13.3333C13.7935 13.3333 14.1666 12.9602 14.1666 12.5C14.1666 12.0398 13.7935 11.6667 13.3333 11.6667C12.873 11.6667 12.4999 12.0398 12.4999 12.5C12.4999 12.9602 12.873 13.3333 13.3333 13.3333ZM6.66659 10C5.28587 10 4.16659 8.88071 4.16659 7.5C4.16659 6.11929 5.28587 5 6.66659 5C8.0473 5 9.16659 6.11929 9.16659 7.5C9.16659 8.88071 8.0473 10 6.66659 10ZM6.66659 8.33334C7.12682 8.33334 7.49992 7.96024 7.49992 7.5C7.49992 7.03977 7.12682 6.66667 6.66659 6.66667C6.20635 6.66667 5.83325 7.03977 5.83325 7.5C5.83325 7.96024 6.20635 8.33334 6.66659 8.33334ZM13.4316 5L8.43161 15H6.56822L11.5682 5H13.4316Z" fill="#22282B"/>
</g>
<defs>
<clipPath id="clip0_74_2962">
<rect width="20" height="20" fill="white"/>
</clipPath>
</defs>
</svg>
