<svg width="18" height="20" viewBox="0 0 18 20" fill="none" xmlns="http://www.w3.org/2000/svg">
<path d="M5.45005 0.00556012C5.49877 0.00535018 5.54749 0.00514024 5.59768 0.00492394C5.73263 0.00436064 5.86758 0.00452587 6.00253 0.00481349C6.14818 0.0049979 6.29383 0.00451032 6.43948 0.00411113C6.7247 0.00344081 7.00993 0.00340841 7.29516 0.00361266C7.52699 0.0037702 7.75882 0.00371395 7.99065 0.00350552C8.02365 0.00347635 8.05665 0.00344717 8.09064 0.00341711C8.15767 0.00335741 8.2247 0.00329745 8.29173 0.00323721C8.92032 0.00270207 9.54891 0.00291423 10.1775 0.00336138C10.7526 0.0037486 11.3276 0.00324407 11.9027 0.00231142C12.4932 0.00136091 13.0837 0.00098598 13.6742 0.00124535C14.0057 0.00138156 14.3372 0.00129403 14.6687 0.00061185C14.9509 3.83432e-05 15.2331 1.26624e-05 15.5153 0.000692579C15.6593 0.00102474 15.8032 0.00110711 15.9472 0.00051125C16.1033 -0.000126827 16.2593 0.000444228 16.4154 0.00113463C16.4609 0.0007602 16.5064 0.000385773 16.5532 0C16.8076 0.00231994 16.9661 0.023761 17.1724 0.176603C17.3547 0.373696 17.416 0.514976 17.4163 0.783105C17.4165 0.808851 17.4166 0.834598 17.4167 0.861125C17.4171 0.94778 17.4169 1.03442 17.4167 1.12108C17.4169 1.18369 17.4171 1.2463 17.4173 1.30891C17.4177 1.48128 17.4177 1.65365 17.4176 1.82603C17.4176 2.01184 17.4181 2.19765 17.4184 2.38346C17.4191 2.74777 17.4193 3.11208 17.4193 3.47639C17.4194 3.77276 17.4195 4.06913 17.4198 4.3655C17.4205 5.20625 17.4208 6.047 17.4208 6.88775C17.4208 6.9331 17.4208 6.97845 17.4207 7.02518C17.4207 7.07059 17.4207 7.11599 17.4207 7.16278C17.4207 7.89731 17.4215 8.63184 17.4226 9.36637C17.4237 10.1211 17.4242 10.8757 17.4241 11.6304C17.4241 12.0539 17.4243 12.4774 17.4252 12.9009C17.4259 13.2618 17.4261 13.6227 17.4255 13.9837C17.4253 14.1676 17.4253 14.3514 17.4259 14.5353C17.4315 16.1315 17.1603 17.4881 16.0102 18.664C15.7681 18.9047 15.5123 19.0966 15.2233 19.278C15.1919 19.299 15.1606 19.32 15.1283 19.3417C14.535 19.7245 13.7551 19.9836 13.0471 19.9849C13.0024 19.9851 12.9577 19.9853 12.9116 19.9854C12.8629 19.9854 12.8141 19.9854 12.7639 19.9854C12.7114 19.9856 12.6588 19.9857 12.6062 19.9859C12.4619 19.9863 12.3176 19.9864 12.1733 19.9865C12.0176 19.9867 11.8619 19.987 11.7062 19.9874C11.3305 19.9881 10.9547 19.9885 10.5789 19.9889C10.4019 19.989 10.225 19.9893 10.048 19.9895C9.45964 19.9901 8.87131 19.9907 8.28298 19.991C8.13042 19.991 7.97785 19.9911 7.82529 19.9912C7.76841 19.9912 7.76841 19.9912 7.71039 19.9913C7.09563 19.9916 6.48088 19.9926 5.86613 19.9938C5.23492 19.9951 4.60371 19.9958 3.9725 19.9959C3.61811 19.996 3.26373 19.9964 2.90935 19.9974C2.60767 19.9982 2.30601 19.9985 2.00433 19.9981C1.85042 19.998 1.69652 19.998 1.54261 19.9988C1.40167 19.9995 1.26075 19.9995 1.11982 19.9988C1.04477 19.9987 0.969717 19.9993 0.894671 20C0.633349 19.998 0.465062 19.9829 0.254025 19.8238C0.0757288 19.631 0.0104301 19.4903 0.0101015 19.228C0.00985013 19.1774 0.00959857 19.1267 0.00933956 19.0745C0.00945426 19.0182 0.00957644 18.9618 0.00970537 18.9055C0.00955976 18.8457 0.00938031 18.786 0.00917003 18.7262C0.00869211 18.5617 0.0087035 18.3973 0.00879529 18.2328C0.00881117 18.0555 0.00838131 17.8783 0.00801131 17.701C0.00736313 17.3536 0.00714943 17.0062 0.00710599 16.6588C0.00706897 16.3764 0.00690901 16.0941 0.00666166 15.8117C0.00597489 15.0116 0.00561521 14.2114 0.00567365 13.4112C0.00567677 13.3681 0.00567996 13.3249 0.00568317 13.2804C0.00568636 13.2372 0.0056894 13.194 0.00569269 13.1495C0.00572438 12.4492 0.00497828 11.7488 0.00387906 11.0485C0.00275979 10.3297 0.00222111 9.61093 0.0022885 8.89215C0.00231441 8.48848 0.00209888 8.08481 0.00126064 7.68114C0.000551548 7.33745 0.000380888 6.99377 0.000910887 6.65008C0.00116586 6.47469 0.00116826 6.29932 0.00049332 6.12393C-0.000118214 5.96337 -1.02388e-05 5.80283 0.000671173 5.64227C0.000791219 5.58419 0.00064791 5.52611 0.000214347 5.46803C-0.00243882 5.08741 0.0158837 4.885 0.265823 4.59409C0.315603 4.54424 0.315603 4.54424 0.366389 4.49339C0.384982 4.47461 0.403575 4.45584 0.422731 4.43649C0.484457 4.3743 0.546589 4.31254 0.608731 4.25076C0.653334 4.206 0.697911 4.16122 0.742466 4.11641C0.863091 3.99525 0.98408 3.87447 1.10516 3.75376C1.23201 3.6272 1.35858 3.50036 1.48519 3.37356C1.69779 3.16075 1.91064 2.94819 2.12362 2.73576C2.36968 2.49034 2.61531 2.2445 2.86073 1.99844C3.0717 1.78693 3.2829 1.57566 3.4943 1.36457C3.62044 1.23861 3.74651 1.11256 3.87237 0.986313C3.99069 0.867659 4.10929 0.749295 4.22811 0.631147C4.27162 0.587798 4.31502 0.544349 4.35832 0.500794C4.41754 0.441254 4.47711 0.382087 4.53678 0.322999C4.56999 0.289827 4.60321 0.256655 4.63743 0.222478C4.89712 0.00117296 5.1217 0.00387112 5.45005 0.00556012ZM5.94546 1.50201C5.9326 2.80129 5.91973 4.10058 5.90648 5.43923C5.71157 5.75109 5.71157 5.75109 5.39971 5.90702C3.48937 5.92632 3.48937 5.92632 1.54045 5.94601C1.54045 10.0883 1.54045 14.2306 1.54045 18.4984C3.37279 18.5 5.20514 18.5016 7.09301 18.5032C7.67107 18.5039 8.24912 18.5046 8.8447 18.5054C9.36394 18.5056 9.36394 18.5056 9.88319 18.5058C10.114 18.5059 10.3449 18.5062 10.5757 18.5066C10.8424 18.5071 11.1091 18.5073 11.3758 18.5072C11.512 18.5072 11.6482 18.5072 11.7844 18.5077C13.0443 18.511 14.0922 18.3963 15.0352 17.4804C15.667 16.8094 15.906 15.9903 15.9001 15.0873C15.9001 15.0283 15.9002 14.9693 15.9004 14.9103C15.9006 14.7497 15.9002 14.5892 15.8996 14.4286C15.8991 14.2549 15.8992 14.0812 15.8993 13.9075C15.8994 13.607 15.899 13.3065 15.8984 13.0061C15.8974 12.5716 15.8971 12.1372 15.897 11.7028C15.8967 10.9979 15.8959 10.2929 15.8948 9.58799C15.8937 8.90349 15.8929 8.21899 15.8924 7.53448C15.8924 7.49181 15.8924 7.44914 15.8923 7.40518C15.8921 7.07143 15.8918 6.73768 15.8916 6.40393C15.8905 4.76996 15.8882 3.13598 15.886 1.50201C12.6056 1.50201 9.32524 1.50201 5.94546 1.50201ZM4.22071 2.79291C4.18559 2.8279 4.15047 2.8629 4.11429 2.89895C4.07573 2.93758 4.03718 2.97622 3.99862 3.01486C3.95936 3.0541 3.92008 3.09334 3.8808 3.13257C3.79839 3.21493 3.71604 3.29736 3.63374 3.37984C3.528 3.48581 3.42207 3.5916 3.3161 3.69734C3.23493 3.77837 3.15386 3.85948 3.07282 3.94063C3.03379 3.97969 2.99473 4.01871 2.95564 4.05771C2.90112 4.11213 2.84674 4.16669 2.79237 4.22125C2.76132 4.25233 2.73028 4.2834 2.69829 4.31542C2.62753 4.37524 2.62753 4.37524 2.63195 4.42569C3.22371 4.42569 3.81546 4.42569 4.42515 4.42569C4.42515 3.83394 4.42515 3.24218 4.42515 2.6325C4.34482 2.6325 4.27227 2.7414 4.22071 2.79291Z" fill="#22282B"/>
<path d="M14.1318 6.33585C14.2981 6.47947 14.4264 6.62223 14.4633 6.84323C14.4645 6.90564 14.4645 6.90564 14.4656 6.96931C14.4681 7.03112 14.4681 7.03112 14.4707 7.09418C14.4088 7.41151 14.1554 7.65493 13.9322 7.87601C13.8916 7.91689 13.8916 7.91689 13.8502 7.95859C13.7604 8.049 13.6701 8.13899 13.5799 8.22898C13.515 8.29404 13.4502 8.35913 13.3854 8.42425C13.2099 8.60041 13.0341 8.7762 12.8582 8.95191C12.6926 9.11737 12.5272 9.28306 12.3618 9.44872C12.0143 9.79673 11.6665 10.1444 11.3185 10.4919C11.0005 10.8095 10.6829 11.1276 10.3656 11.4459C10.0392 11.7732 9.7125 12.1003 9.3855 12.427C9.20213 12.6103 9.01888 12.7936 8.83591 12.9772C8.66392 13.1498 8.49156 13.322 8.31891 13.494C8.25566 13.5571 8.19255 13.6203 8.12958 13.6837C8.04351 13.7703 7.95698 13.8563 7.8703 13.9423C7.84559 13.9674 7.82087 13.9925 7.7954 14.0184C7.61323 14.1976 7.42087 14.3366 7.16616 14.3869C7.13642 14.3865 7.10667 14.3861 7.07602 14.3857C7.03139 14.3863 7.03139 14.3863 6.98587 14.3869C6.67656 14.3258 6.47393 14.1376 6.26015 13.9208C6.21645 13.8774 6.21645 13.8774 6.17187 13.8331C6.07629 13.738 5.98128 13.6424 5.88629 13.5467C5.81974 13.4801 5.75317 13.4136 5.68657 13.3471C5.54737 13.208 5.40843 13.0686 5.2697 12.9289C5.09198 12.7501 4.91366 12.5719 4.73514 12.3939C4.59771 12.2567 4.46057 12.1193 4.32351 11.9817C4.25786 11.9159 4.19213 11.8502 4.12632 11.7845C4.03441 11.6927 3.94289 11.6005 3.85147 11.5083C3.82431 11.4813 3.79715 11.4543 3.76917 11.4265C3.57576 11.2301 3.43402 11.0526 3.43359 10.7652C3.44141 10.5041 3.51458 10.3237 3.7016 10.1415C3.86761 10.0362 4.00894 9.9884 4.20593 9.98558C4.24081 9.98447 4.27568 9.98337 4.31161 9.98223C4.57695 10.0242 4.76266 10.2038 4.94377 10.3885C4.96663 10.4114 4.98948 10.4342 5.01302 10.4577C5.08776 10.5325 5.16207 10.6078 5.23638 10.683C5.2884 10.7352 5.34045 10.7875 5.39253 10.8397C5.52897 10.9765 5.66506 11.1138 5.80107 11.2511C5.94015 11.3914 6.07955 11.5313 6.21894 11.6713C6.49196 11.9455 6.76462 12.2202 7.03703 12.4951C7.22077 12.3417 7.39457 12.182 7.56314 12.0121C7.58709 11.9881 7.61103 11.9642 7.6357 11.9395C7.71521 11.8599 7.79458 11.7801 7.87395 11.7003C7.93121 11.6429 7.98848 11.5855 8.04576 11.5282C8.16873 11.4049 8.29165 11.2816 8.41452 11.1583C8.60886 10.9633 8.80336 10.7684 8.9979 10.5735C9.55093 10.0196 10.1037 9.46536 10.6564 8.91099C10.9618 8.60455 11.2675 8.29825 11.5732 7.9921C11.7666 7.79846 11.9598 7.60465 12.1529 7.4107C12.273 7.29013 12.3933 7.16971 12.5136 7.04934C12.5694 6.99353 12.625 6.93765 12.6806 6.88169C12.7566 6.80527 12.8328 6.7291 12.909 6.65298C12.9309 6.63084 12.9528 6.6087 12.9753 6.58589C13.3154 6.24799 13.677 6.08697 14.1318 6.33585Z" fill="#22282B"/>
</svg>
