<svg width="20" height="20" viewBox="0 0 20 20" fill="none" xmlns="http://www.w3.org/2000/svg">
<path d="M4.88084 4C5.17483 1.81519 7.3582 0 9.84725 0C12.3363 0 14.5197 1.81519 14.8136 4H17.6942C18.7988 4 19.6942 4.89543 19.6942 6C19.6942 6.09464 19.6875 6.18916 19.6741 6.28284L17.9598 18.2828C17.8191 19.2681 16.9753 20 15.9799 20H3.71454C2.71924 20 1.8754 19.2681 1.73464 18.2828L0.0203557 6.28284C-0.135854 5.18937 0.623944 4.17631 1.71741 4.0201C1.8111 4.00672 1.90562 4 2.00025 4H4.88084ZM6.91936 4H12.7751C12.4711 2.93808 11.2453 2 9.84725 2C8.44921 2 7.22335 2.93808 6.91936 4ZM4.84725 6H2.00025L3.71454 18H15.9799L17.6942 6H14.8472V8H12.8472V6H6.84725V8H4.84725V6Z" fill="white"/>
</svg>
