<svg width="23" height="23" viewBox="0 0 23 23" fill="none" xmlns="http://www.w3.org/2000/svg">
<path d="M10.3587 0.000126446C10.4117 6.3855e-05 10.4117 6.3855e-05 10.4658 0C10.5845 5.97165e-05 10.7032 0.000919215 10.8219 0.00184618C10.9067 0.00219775 10.9915 0.00254396 11.0762 0.00288519C12.0499 0.0084036 13.0231 0.0363956 13.9962 0.067989C14.2558 0.0763872 14.5154 0.0838555 14.7751 0.0911299C14.9782 0.0969667 15.1812 0.10342 15.3843 0.110047C15.4802 0.113077 15.576 0.115887 15.6719 0.11846C15.8047 0.122087 15.9374 0.126582 16.0702 0.13129C16.1087 0.132153 16.1473 0.133015 16.187 0.133904C16.4545 0.144662 16.6623 0.201327 16.907 0.311936C17.2001 0.635049 17.1644 1.07711 17.1762 1.49091C17.1784 1.56034 17.1784 1.56034 17.1807 1.63119C17.1855 1.78357 17.19 1.93597 17.1945 2.08836C17.1977 2.19569 17.201 2.30301 17.2043 2.41033C17.2112 2.63554 17.2179 2.86075 17.2246 3.08597C17.233 3.3709 17.2418 3.65582 17.2506 3.94073C17.2575 4.16281 17.2642 4.3849 17.2708 4.60698C17.274 4.71179 17.2772 4.81659 17.2804 4.92138C17.2911 5.26661 17.2998 5.61184 17.3067 5.95716C17.3085 6.04123 17.3085 6.04123 17.3104 6.127C17.3138 6.29917 17.316 6.47132 17.318 6.64351C17.3191 6.69681 17.3202 6.75011 17.3214 6.80503C17.3217 6.85459 17.3221 6.90415 17.3224 6.95522C17.323 6.99892 17.3236 7.04263 17.3242 7.08766C17.3031 7.23011 17.2507 7.29897 17.1568 7.40594C16.6749 7.11861 16.2207 6.81555 15.7873 6.45817C15.7536 6.43123 15.72 6.40429 15.6854 6.37654C15.6559 6.35225 15.6265 6.32796 15.5961 6.30293C15.5094 6.2471 15.5094 6.2471 15.4056 6.26838C15.2547 6.32808 15.1439 6.42699 15.018 6.52856C12.7635 8.30475 9.9687 9.19615 7.11528 9.25438C7.14977 11.5587 7.37222 13.7937 8.26762 15.945C8.31922 16.1149 8.31567 16.1811 8.26431 16.3484C8.18384 16.4531 8.18384 16.4531 8.08067 16.555C8.04342 16.5921 8.00616 16.6292 7.96778 16.6674C7.92859 16.7053 7.88941 16.7433 7.84903 16.7824C7.81042 16.8209 7.77182 16.8595 7.73204 16.8992C7.31401 17.3107 7.31401 17.3107 6.99663 17.3163C6.96018 17.3177 6.92373 17.3191 6.88617 17.3206C6.59919 17.2658 6.38647 17.0329 6.18735 16.8316C6.16102 16.8054 6.13468 16.7792 6.10755 16.7522C6.01999 16.6649 5.93279 16.5773 5.84558 16.4896C5.78264 16.4268 5.71968 16.3639 5.65669 16.301C5.48618 16.1308 5.31597 15.9602 5.14582 15.7895C4.96772 15.611 4.78936 15.4327 4.61103 15.2544C4.31181 14.9551 4.01279 14.6557 3.71389 14.3561C3.36801 14.0094 3.02187 13.663 2.67558 13.3168C2.34257 12.9838 2.00969 12.6507 1.6769 12.3175C1.53517 12.1756 1.3934 12.0337 1.2516 11.8919C1.08488 11.7251 0.918285 11.5582 0.75179 11.3912C0.690548 11.3298 0.629264 11.2685 0.567934 11.2072C0.484501 11.1237 0.401222 11.0402 0.317983 10.9566C0.293452 10.9321 0.268921 10.9077 0.243646 10.8825C0.0590642 10.6966 0.0124368 10.6021 0.00565928 10.341C0.00379172 10.2943 0.00192415 10.2477 0 10.1997C0.0517003 9.84489 0.367289 9.59372 0.610166 9.35254C0.649604 9.31298 0.689042 9.27342 0.729675 9.23267C0.861714 9.10035 0.994107 8.96838 1.1265 8.83642C1.2213 8.74157 1.31608 8.64669 1.41084 8.5518C1.6414 8.32098 1.87223 8.09044 2.10315 7.85998C2.37203 7.59162 2.64065 7.32299 2.90926 7.05436C3.38843 6.57516 3.86784 6.09621 4.34739 5.61739C4.81283 5.15265 5.2781 4.68773 5.74318 4.22262C5.77184 4.19395 5.80051 4.16529 5.83004 4.13576C5.85865 4.10714 5.88727 4.07853 5.91675 4.04904C6.44621 3.51955 6.97583 2.99022 7.50553 2.46096C7.69292 2.27373 7.88026 2.08644 8.06758 1.89914C8.29572 1.67103 8.52396 1.44302 8.75231 1.21513C8.86885 1.09882 8.98533 0.982464 9.10174 0.866023C9.22779 0.739948 9.35399 0.614026 9.48023 0.488145C9.53565 0.432614 9.53565 0.432614 9.59218 0.375962C9.62594 0.342361 9.65971 0.308761 9.69449 0.274142C9.72361 0.245053 9.75274 0.215964 9.78275 0.185993C9.97747 0.00660804 10.1005 -0.000304014 10.3587 0.000126446ZM13.9572 1.99938C13.7626 2.2088 13.6086 2.40938 13.6104 2.70679C13.6359 3.00677 13.7247 3.24611 13.9564 3.44679C14.244 3.6581 14.4542 3.70123 14.8088 3.65911C15.0892 3.57795 15.2542 3.43506 15.4128 3.19368C15.5323 2.97259 15.5363 2.75467 15.5082 2.51008C15.4183 2.22179 15.2659 2.02263 15.0086 1.86063C14.6283 1.71939 14.2724 1.72567 13.9572 1.99938Z" fill="#F07F0E"/>
<path d="M15.4083 7.1062C15.6216 7.21997 15.8142 7.34527 16.0078 7.49025C18.053 8.99228 20.5111 9.68348 23.0018 9.95379C23.0821 13.2797 22.0238 16.5325 19.9544 19.146C19.896 19.2204 19.896 19.2204 19.8364 19.2963C19.1398 20.1649 18.3442 21.0195 17.4565 21.6939C17.3948 21.7431 17.3331 21.7924 17.2715 21.8418C16.8774 22.1545 16.4712 22.4408 16.0452 22.7086C15.9783 22.7513 15.9783 22.7513 15.91 22.7948C15.8678 22.8208 15.8256 22.8468 15.7822 22.8735C15.7449 22.8966 15.7077 22.9197 15.6693 22.9435C15.5374 23.002 15.4514 23.0083 15.3083 22.9928C15.1779 22.9243 15.0593 22.8547 14.9368 22.7742C14.9016 22.7516 14.8664 22.7289 14.8301 22.7056C13.9444 22.1305 13.1208 21.4782 12.3608 20.7447C12.33 20.7149 12.2991 20.6851 12.2673 20.6544C11.8716 20.2706 11.5019 19.8805 11.1619 19.4458C11.115 19.3888 11.0679 19.332 11.0208 19.2752C8.87428 16.6769 7.80541 13.3016 7.86464 9.95379C7.9037 9.94957 7.94277 9.94535 7.98302 9.941C10.7051 9.6387 13.2149 8.77514 15.4083 7.1062ZM11.9643 11.8221C11.7935 12.0375 11.6488 12.2638 11.5116 12.5016C11.489 12.5399 11.4665 12.5781 11.4433 12.6176C10.8865 13.6377 10.8107 14.8915 11.1298 15.996C11.4957 17.1676 12.3346 18.1206 13.41 18.6964C13.6539 18.8137 13.9035 18.9082 14.1593 18.9962C14.2081 19.0132 14.2569 19.0303 14.3072 19.0479C15.4747 19.3843 16.7155 19.1051 17.7563 18.5403C18.098 18.3344 18.3746 18.0777 18.6555 17.7972C18.7167 17.7369 18.7167 17.7369 18.779 17.6754C19.1932 17.2435 19.4617 16.7406 19.6734 16.186C19.6853 16.1548 19.6973 16.1236 19.7095 16.0915C19.8733 15.6372 19.9227 15.1933 19.9201 14.7123C19.9198 14.6595 19.9196 14.6068 19.9193 14.5525C19.9029 13.4518 19.4794 12.4772 18.7554 11.6524C18.7228 11.6149 18.6901 11.5775 18.6565 11.539C17.8999 10.7284 16.8077 10.245 15.7047 10.1862C14.2521 10.1443 12.9194 10.7203 11.9643 11.8221Z" fill="#F07F0E"/>
<path d="M17.6938 11.668C17.7656 11.7282 17.8364 11.7896 17.9061 11.8522C17.9676 11.9068 17.9676 11.9068 18.0304 11.9625C18.6893 12.5814 19.1387 13.4599 19.1701 14.3728C19.1807 15.405 18.9905 16.2951 18.3058 17.0978C18.2846 17.126 18.2635 17.1542 18.2418 17.1833C17.7643 17.7968 16.9552 18.2256 16.1993 18.3749C15.1514 18.4944 14.0909 18.3804 13.2222 17.7317C13.0394 17.5818 12.8741 17.4181 12.7105 17.2477C12.6767 17.2138 12.643 17.1798 12.6082 17.1448C12.2248 16.7368 11.9699 16.2325 11.8113 15.699C11.7943 15.6444 11.7943 15.6444 11.7771 15.5887C11.5593 14.7312 11.6931 13.727 12.111 12.9513C12.1319 12.9116 12.1529 12.8719 12.1744 12.8309C12.3613 12.4978 12.5934 12.2242 12.8604 11.9522C12.8905 11.9208 12.9206 11.8894 12.9517 11.8571C14.2119 10.649 16.3323 10.6588 17.6938 11.668ZM17.0235 13.1973C16.9886 13.2294 16.9537 13.2615 16.9178 13.2946C16.7234 13.4812 16.5317 13.6702 16.3418 13.8613C16.2778 13.9254 16.2778 13.9254 16.2125 13.9908C16.0775 14.1261 15.9427 14.2615 15.8079 14.397C15.7158 14.4893 15.6238 14.5815 15.5317 14.6738C15.3073 14.8988 15.0829 15.124 14.8587 15.3493C14.6886 15.2691 14.5816 15.1816 14.4514 15.0447C14.4126 15.0046 14.3738 14.9646 14.3338 14.9234C14.2528 14.8389 14.172 14.7542 14.0915 14.6693C14.0526 14.6293 14.0137 14.5894 13.9737 14.5482C13.9386 14.5114 13.9035 14.4747 13.8673 14.4368C13.7442 14.3378 13.6666 14.311 13.5098 14.3002C13.3958 14.3572 13.3005 14.4096 13.2101 14.5C13.1795 14.6439 13.1729 14.7104 13.2101 14.8497C13.3149 15.005 13.4433 15.1343 13.576 15.2661C13.676 15.3655 13.7746 15.4661 13.8734 15.5667C14.0232 15.7185 14.1733 15.87 14.3244 16.0206C14.3723 16.0684 14.3723 16.0684 14.4211 16.1172C14.54 16.2274 14.6333 16.2931 14.7931 16.3266C15.2198 16.2541 15.5896 15.7257 15.8855 15.4299C15.9351 15.3805 15.9847 15.331 16.0343 15.2816C16.1374 15.1788 16.2405 15.0759 16.3434 14.9729C16.4752 14.8411 16.6073 14.7097 16.7395 14.5783C16.8417 14.4767 16.9436 14.3749 17.0455 14.273C17.0941 14.2244 17.1429 14.1759 17.1917 14.1275C17.2597 14.0599 17.3273 13.9921 17.395 13.9242C17.4335 13.8858 17.472 13.8473 17.5117 13.8077C17.6368 13.6663 17.7079 13.567 17.7031 13.376C17.64 13.2076 17.5573 13.1459 17.4065 13.0512C17.188 13.0512 17.173 13.0589 17.0235 13.1973Z" fill="#F07F0E"/>
</svg>
